<svg width="814" height="160" xmlns="http://www.w3.org/2000/svg" class="fl-svgdocument">
 <g>
  <title>Layer 1</title>
  <path stroke="null" fill="#3e454f" id="_QGgIRpryAqxLHLlpphUPe" d="m196.03302,101.60517l0,45.20157q0,3.186 -18.91695,3.186l0,0q-19.11609,0 -19.11609,-2.98688l0,0l0,-129.83006q0,-6.96939 7.36766,-6.96939l0,0l38.03304,0q52.37009,0 52.37009,40.8208l0,0q0,12.3458 -4.77902,22.40167q-4.77902,10.05585 -13.54057,16.02964l0,0l25.08986,41.81643q-1.59301,4.77902 -10.35454,10.95193l0,0q-11.94755,8.56241 -19.71345,8.56241q-7.7659,0 -11.54929,-5.57552l0,0l-18.71783,-43.60856l-6.17291,0l0,-0.00002zm4.18163,-56.15348l-4.18163,0l0,29.86887l0.99563,0q18.91695,0 18.91695,-15.73094l0,0q0,-7.16854 -3.68382,-10.65323q-3.68382,-3.4847 -12.0471,-3.4847l0,0l-0.00002,0zm82.93592,92.39438q-12.44537,-13.73969 -12.44537,-38.03304q0,-24.29335 12.44537,-38.03304q12.44537,-13.73969 33.55271,-13.73969q21.10735,0 33.45314,13.73969q12.3458,13.73969 12.3458,38.03304q0,24.29335 -12.3458,38.03304q-12.3458,13.73969 -33.45314,13.73969q-21.10735,0 -33.55271,-13.73969zm33.65226,-56.55174q-11.25062,0 -11.25062,18.31958q0,18.31958 11.25062,18.31958q11.25062,0 11.25062,-18.31958q0,-18.31958 -11.25062,-18.31958zm94.28609,-0.59739l-34.84701,1.19475q-1.39387,0 -1.39387,-8.56241l0,0q0,-23.29772 3.78339,-23.29772l0,0l63.52113,0q1.39387,0 6.17291,8.76153q4.77902,8.76153 4.77902,9.85673q0,1.0952 -0.19912,1.29432l0,0l-38.63042,48.5867l34.64789,-2.38952q3.186,0 3.186,14.13793l0,0q0,5.3764 -0.99563,12.3458q-0.99563,6.96939 -3.38515,6.96939l0,0l-63.72028,0q-2.98688,0 -7.16854,-9.9563q-4.18163,-9.9563 -4.18163,-12.0471q0,-2.09083 0.39824,-2.48907l0,0l38.03304,-44.40507l0.00002,0.00005zm54.95873,57.1491l0,0l0,-123.85627q0,-4.18163 20.21127,-4.18163q20.21127,0 20.21127,4.18163l0,0l0,97.57166l30.66538,0q3.58427,0 4.97814,9.35891l0,0q0.59739,4.5799 0.59739,9.35891q0,4.77902 -0.59739,9.75715l0,0q-1.59301,9.55803 -5.17728,9.55803l0,0l-61.33076,0q-4.38078,0 -6.96939,-3.58427q-2.58864,-3.58427 -2.58864,-8.16416l0.00002,0.00002zm124.05539,-87.21712l0,97.77078q0,1.59301 -18.22001,1.59301q-18.22001,0 -18.22001,-1.39387l0,0l0,-97.77078q0,-1.39387 18.22001,-1.39387q18.22001,0 18.22001,1.19475l0,0l0,-0.00002zm0,-41.01992l0,29.27149q0,1.39387 -18.22001,1.39387q-18.22001,0 -18.22001,-1.19475l0,0l0,-28.67412q0,-1.99126 18.22001,-1.99126q18.22001,0 18.22001,1.19475l0,0l0,0.00002zm59.53862,74.87133l0,63.9194q0,1.39387 -14.33705,1.39387l0,0q-19.91257,-0.59739 -19.91257,-2.19038l0,0l0,-64.51676l-5.17728,0q-5.17728,0 -6.77027,-8.76153l0,0q-0.39824,-2.58864 -0.39824,-5.17728l0,0q0,-6.17291 2.38952,-12.3458l0,0q3.58427,-8.76153 11.15105,-8.76153q7.56678,0 13.54057,3.58427q5.97377,3.58427 7.96504,7.16854l0,0q12.54492,-10.75281 29.86887,-10.75281q17.32396,0 25.08986,9.35891q7.7659,9.35891 7.7659,30.66538l0,0l0,59.73775q0,2.38952 -17.02526,2.38952q-17.02526,0 -17.02526,-2.38952l0,0l0,-57.54737q0,-9.9563 -6.96939,-9.9563l0,0q-1.99126,0 -5.57552,1.69256q-3.58427,1.69256 -4.5799,2.48907l0,0l-0.00005,0zm68.10103,63.9194l0,-136.60033q0,-3.186 18.12044,-3.186l0,0q16.92569,0.59739 16.92569,2.58864l0,0l0,76.46432l19.71345,-36.44002q1.39387,-2.98688 16.92569,-2.98688q15.53182,0 19.91257,1.99126l0,0l-25.88636,42.21467l29.86887,55.95436q0.39824,0.79651 -7.46723,1.29432q-7.86547,0.49781 -13.04275,0.49781l0,0q-19.11609,0 -20.50996,-1.79213l0,0l-19.71345,-44.20595l0,44.0068q0,2.58864 -17.42351,2.58864q-17.42351,0 -17.42351,-2.38952l0,0l0.00005,0.00002z"/>
  <g stroke="null" id="svg_1">
   <circle stroke="null" id="_3UuPQS-sKPLJRYZTFnykc" cx="19.96961" cy="-193.20545" r="88.38499" fill="#485fc7" transform="matrix(0.8388440809098354,0,0,0.8388440809098354,59.267363847429024,242.06926200644213) "/>
   <path stroke="null" id="_PQsRWElFhi8QJEX9djcOl" d="m76.0114,145.80213c36.34302,0 65.80211,-29.45909 65.80211,-65.80211s-29.45909,-65.80211 -65.80211,-65.80211s-65.80211,29.45909 -65.80211,65.80211s29.45909,65.80211 65.80211,65.80211zm0,-126.54252c33.49328,0 60.74041,27.24714 60.74041,60.74041c0,7.10663 -1.29074,13.90449 -3.54319,20.2468l-57.19722,0c-11.16611,0 -20.2468,-9.0807 -20.2468,-20.2468s9.0807,-20.2468 20.2468,-20.2468s20.2468,9.0807 20.2468,20.2468l5.06169,0c0,-13.95511 -11.35339,-25.3085 -25.3085,-25.3085s-25.3085,11.35339 -25.3085,25.3085s11.35339,25.3085 25.3085,25.3085l55.14723,0c-2.56628,5.57294 -5.9475,10.67513 -10.00193,15.1851l-45.1453,0c-22.32717,0 -40.49361,-18.16644 -40.49361,-40.49361s18.16644,-40.49361 40.49361,-40.49361s40.49361,18.16644 40.49361,40.49361l5.06169,0c0,-25.11616 -20.43408,-45.5553 -45.5553,-45.5553s-45.5553,20.43915 -45.5553,45.5553s20.43408,45.5553 45.5553,45.5553l40.04312,0c-10.70044,9.41983 -24.69604,15.1851 -40.04312,15.1851c-33.49328,0 -60.74041,-27.24714 -60.74041,-60.74041s27.24714,-60.74041 60.74041,-60.74041l-0.00001,0.00003z" fill="#ffffff"/>
  </g>
 </g>

</svg>